<svg width="129" height="29" viewBox="0 0 129 29" fill="none" xmlns="http://www.w3.org/2000/svg">
<path d="M0.64 28V-1.90735e-06H10.68L16.24 24.4H16.96V-1.90735e-06H22.16V28H12.12L6.56 3.6H5.84V28H0.64ZM36.6369 28.56C34.6635 28.56 32.9169 28.1467 31.3969 27.32C29.9035 26.4667 28.7302 25.28 27.8769 23.76C27.0502 22.2133 26.6369 20.4 26.6369 18.32V17.84C26.6369 15.76 27.0502 13.96 27.8769 12.44C28.7035 10.8933 29.8635 9.70667 31.3569 8.88C32.8502 8.02667 34.5835 7.6 36.5569 7.6C38.5035 7.6 40.1969 8.04 41.6369 8.92C43.0769 9.77333 44.1969 10.9733 44.9969 12.52C45.7969 14.04 46.1969 15.8133 46.1969 17.84V19.56H31.7569C31.8102 20.92 32.3169 22.0267 33.2769 22.88C34.2369 23.7333 35.4102 24.16 36.7969 24.16C38.2102 24.16 39.2502 23.8533 39.9169 23.24C40.5835 22.6267 41.0902 21.9467 41.4369 21.2L45.5569 23.36C45.1835 24.0533 44.6369 24.8133 43.9169 25.64C43.2235 26.44 42.2902 27.1333 41.1169 27.72C39.9435 28.28 38.4502 28.56 36.6369 28.56ZM31.7969 15.8H41.0769C40.9702 14.6533 40.5035 13.7333 39.6769 13.04C38.8769 12.3467 37.8235 12 36.5169 12C35.1569 12 34.0769 12.3467 33.2769 13.04C32.4769 13.7333 31.9835 14.6533 31.7969 15.8ZM48.7628 28L56.9628 13.88L48.8428 -1.90735e-06H54.8428L60.4028 10.12H61.1228L66.6828 -1.90735e-06H72.6828L64.5628 13.88L72.7628 28H66.7628L61.1228 17.64H60.4028L54.7628 28H48.7628ZM83.6725 28.32C82.1258 28.32 80.7658 27.9733 79.5925 27.28C78.4458 26.56 77.5525 25.5733 76.9125 24.32C76.2725 23.0667 75.9525 21.6267 75.9525 20V8.16H80.9925V19.6C80.9925 21.0933 81.3525 22.2133 82.0725 22.96C82.8192 23.7067 83.8725 24.08 85.2325 24.08C86.7792 24.08 87.9792 23.5733 88.8325 22.56C89.6858 21.52 90.1125 20.08 90.1125 18.24V8.16H95.1525V28H90.1925V25.4H89.4725C89.1525 26.0667 88.5525 26.72 87.6725 27.36C86.7925 28 85.4592 28.32 83.6725 28.32ZM109.001 28.56C106.414 28.56 104.294 28 102.641 26.88C100.988 25.76 99.9876 24.16 99.6409 22.08L104.281 20.88C104.468 21.8133 104.774 22.5467 105.201 23.08C105.654 23.6133 106.201 24 106.841 24.24C107.508 24.4533 108.228 24.56 109.001 24.56C110.174 24.56 111.041 24.36 111.601 23.96C112.161 23.5333 112.441 23.0133 112.441 22.4C112.441 21.7867 112.174 21.32 111.641 21C111.108 20.6533 110.254 20.3733 109.081 20.16L107.961 19.96C106.574 19.6933 105.308 19.3333 104.161 18.88C103.014 18.4 102.094 17.7467 101.401 16.92C100.708 16.0933 100.361 15.0267 100.361 13.72C100.361 11.7467 101.081 10.24 102.521 9.2C103.961 8.13333 105.854 7.6 108.201 7.6C110.414 7.6 112.254 8.09333 113.721 9.08C115.188 10.0667 116.148 11.36 116.601 12.96L111.921 14.4C111.708 13.3867 111.268 12.6667 110.601 12.24C109.961 11.8133 109.161 11.6 108.201 11.6C107.241 11.6 106.508 11.7733 106.001 12.12C105.494 12.44 105.241 12.8933 105.241 13.48C105.241 14.12 105.508 14.6 106.041 14.92C106.574 15.2133 107.294 15.44 108.201 15.6L109.321 15.8C110.814 16.0667 112.161 16.4267 113.361 16.88C114.588 17.3067 115.548 17.9333 116.241 18.76C116.961 19.56 117.321 20.6533 117.321 22.04C117.321 24.12 116.561 25.7333 115.041 26.88C113.548 28 111.534 28.56 109.001 28.56ZM124.898 28.56C123.831 28.56 122.924 28.2133 122.178 27.52C121.458 26.8 121.098 25.88 121.098 24.76C121.098 23.64 121.458 22.7333 122.178 22.04C122.924 21.32 123.831 20.96 124.898 20.96C125.991 20.96 126.898 21.32 127.618 22.04C128.338 22.7333 128.698 23.64 128.698 24.76C128.698 25.88 128.338 26.8 127.618 27.52C126.898 28.2133 125.991 28.56 124.898 28.56Z" fill="black"/>
</svg>
